<!-- Generated by IcoMoon.io -->
<svg version="1.1" xmlns="http://www.w3.org/2000/svg" width="32" height="32" viewBox="0 0 32 32">
<title>brand</title>
<path fill="#afb1b8" d="M2.444 24.594c0.125 0.156 0.192 0.35 0.189 0.55 0.006 0.13-0.017 0.261-0.067 0.381s-0.127 0.228-0.225 0.314c-0.243 0.185-0.545 0.274-0.849 0.254h-1.492v-3.489h1.462c0.289-0.019 0.574 0.062 0.81 0.232 0.094 0.079 0.169 0.179 0.218 0.293s0.071 0.237 0.065 0.36c0.009 0.193-0.052 0.382-0.17 0.534-0.114 0.138-0.27 0.234-0.445 0.273 0.198 0.036 0.377 0.142 0.504 0.298zM0.694 24.067h0.625c0.142 0.010 0.283-0.030 0.397-0.116 0.047-0.042 0.083-0.095 0.106-0.154s0.033-0.122 0.027-0.186c0.005-0.063-0.005-0.126-0.028-0.186s-0.058-0.112-0.104-0.155c-0.118-0.088-0.263-0.13-0.409-0.118h-0.614v0.915zM1.778 25.405c0.050-0.044 0.090-0.098 0.115-0.16s0.037-0.128 0.033-0.194c0.004-0.067-0.008-0.134-0.034-0.197s-0.066-0.118-0.117-0.162c-0.122-0.091-0.273-0.136-0.424-0.126h-0.655v0.959h0.664c0.15 0.009 0.298-0.034 0.419-0.121z"></path>
<path fill="#afb1b8" d="M5.432 26.094l-0.813-1.363h-0.306v1.363h-0.699v-3.489h1.324c0.334-0.023 0.664 0.082 0.922 0.297 0.185 0.19 0.297 0.439 0.314 0.703s-0.058 0.527-0.216 0.74c-0.163 0.188-0.386 0.314-0.631 0.354l0.866 1.394h-0.761zM4.313 24.254h0.572c0.398 0 0.596-0.176 0.596-0.528 0.004-0.072-0.006-0.144-0.032-0.211s-0.064-0.129-0.114-0.181c-0.126-0.105-0.287-0.156-0.45-0.142h-0.579l0.006 1.062z"></path>
<path fill="#afb1b8" d="M9.254 25.391h-1.394l-0.246 0.702h-0.734l1.28-3.45h0.793l1.275 3.45h-0.734l-0.241-0.702zM9.068 24.863l-0.51-1.473-0.51 1.473h1.018z"></path>
<path fill="#afb1b8" d="M14.040 26.094h-0.694l-1.557-2.372v2.372h-0.693v-3.489h0.693l1.557 2.386v-2.386h0.694v3.489z"></path>
<path fill="#afb1b8" d="M18.002 25.258c-0.143 0.263-0.362 0.478-0.628 0.615-0.302 0.154-0.638 0.229-0.976 0.22h-1.236v-3.489h1.236c0.338-0.009 0.673 0.065 0.976 0.214 0.266 0.134 0.485 0.346 0.628 0.609 0.143 0.284 0.218 0.598 0.218 0.915s-0.074 0.631-0.218 0.915zM17.207 25.175c0.198-0.232 0.307-0.527 0.307-0.833s-0.109-0.601-0.307-0.833c-0.239-0.21-0.552-0.317-0.869-0.297h-0.482v2.258h0.482c0.318 0.020 0.63-0.086 0.869-0.297z"></path>
<path fill="#afb1b8" d="M9.689 3.2c0 0 8.961 3.397 8.77 8.312v8.314c0 0-8.954-3.398-8.767-8.314l-0.003-8.312z"></path>
<path fill="#afb1b8" d="M26.443 17.879c1.692-1.17 3.65-1.894 5.694-2.106v-2.602c-2.354 0.911-4.352 2.563-5.694 4.709z"></path>
<path fill="#afb1b8" d="M25.426 18.663c1.385-2.8 3.786-4.962 6.71-6.038v-7.499c0 0-12.762 4.838-12.491 11.838v11.836c0 0 0.569-0.217 1.463-0.622 0-0.378 0-0.76 0.041-1.143 0.264-3.25 1.802-6.261 4.278-8.371z"></path>
<path fill="#afb1b8" d="M24.213 23.060c0.067-0.821 0.217-1.633 0.446-2.423-1.541 1.823-2.474 4.085-2.668 6.468-0.018 0.225-0.029 0.45-0.034 0.682 0.725-0.35 1.569-0.786 2.454-1.298-0.226-1.127-0.293-2.281-0.198-3.427z"></path>
<path fill="#afb1b8" d="M24.72 23.102c-0.085 1.037-0.032 2.081 0.158 3.103 3.486-2.094 7.404-5.331 7.253-9.242v-0.341c-2.491 0.28-4.822 1.373-6.634 3.112-0.424 1.078-0.686 2.213-0.778 3.368z"></path>
</svg>
