<!-- Generated by IcoMoon.io -->
<svg version="1.1" xmlns="http://www.w3.org/2000/svg" width="32" height="32" viewBox="0 0 32 32">
<title>companytag</title>
<path fill="#afb1b8" d="M16.064 15.409c-0.15-0.219-0.222-0.478-0.205-0.739v-1.071c0-0.328 0.068-0.578 0.204-0.748s0.369-0.255 0.7-0.255c0.311 0 0.531 0.073 0.662 0.218 0.142 0.185 0.212 0.412 0.196 0.641v0.252h-0.556v-0.255c0.002-0.084-0.004-0.167-0.016-0.249-0.008-0.056-0.036-0.109-0.079-0.148-0.057-0.042-0.129-0.063-0.201-0.058-0.076-0.005-0.152 0.017-0.212 0.061-0.049 0.044-0.081 0.101-0.092 0.164-0.016 0.087-0.023 0.176-0.022 0.265v1.3c-0.009 0.125 0.016 0.251 0.071 0.365 0.028 0.039 0.066 0.069 0.111 0.088s0.094 0.026 0.143 0.021c0.071 0.006 0.142-0.015 0.197-0.059 0.045-0.042 0.074-0.098 0.083-0.158 0.013-0.086 0.019-0.173 0.017-0.261v-0.264h0.556v0.241c0.015 0.238-0.052 0.475-0.192 0.673-0.128 0.159-0.345 0.238-0.665 0.238s-0.562-0.085-0.698-0.262z"></path>
<path fill="#afb1b8" d="M18.378 15.42c-0.14-0.167-0.211-0.41-0.211-0.731v-1.126c0-0.318 0.070-0.559 0.211-0.722s0.375-0.245 0.704-0.244c0.327 0 0.561 0.082 0.701 0.244 0.14 0.164 0.212 0.404 0.212 0.722v1.126c0 0.318-0.071 0.562-0.214 0.73s-0.375 0.252-0.698 0.252-0.563-0.085-0.704-0.25zM19.341 15.149c0.050-0.104 0.073-0.219 0.067-0.333v-1.379c0.007-0.113-0.016-0.225-0.066-0.327-0.028-0.039-0.068-0.071-0.114-0.090s-0.097-0.026-0.147-0.019c-0.050-0.007-0.101 0-0.147 0.019s-0.086 0.050-0.114 0.090c-0.051 0.102-0.073 0.214-0.067 0.327v1.386c-0.007 0.115 0.016 0.229 0.067 0.333 0.033 0.035 0.072 0.063 0.117 0.083s0.093 0.029 0.143 0.029 0.098-0.010 0.143-0.029c0.045-0.019 0.085-0.047 0.117-0.083v-0.007z"></path>
<path fill="#afb1b8" d="M20.663 12.629h0.598l0.45 2.078 0.46-2.078h0.582l0.059 3h-0.43l-0.046-2.085-0.444 2.085h-0.345l-0.46-2.092-0.042 2.092h-0.435l0.054-3z"></path>
<path fill="#afb1b8" d="M23.484 12.629h0.932c0.537 0 0.806 0.284 0.806 0.852 0 0.544-0.283 0.815-0.848 0.815h-0.317v1.333h-0.575l0.004-3zM24.28 13.911c0.057 0.007 0.115 0.002 0.169-0.014s0.105-0.044 0.147-0.081c0.066-0.101 0.095-0.22 0.083-0.339 0.003-0.091-0.006-0.183-0.027-0.273-0.008-0.030-0.023-0.058-0.042-0.082s-0.044-0.045-0.073-0.060c-0.080-0.036-0.168-0.053-0.257-0.048h-0.223v0.897h0.223z"></path>
<path fill="#afb1b8" d="M26.051 12.629h0.618l0.634 3h-0.536l-0.125-0.692h-0.551l-0.129 0.692h-0.545l0.634-3zM26.579 14.589l-0.215-1.259-0.215 1.259h0.43z"></path>
<path fill="#afb1b8" d="M27.815 12.629h0.403l0.771 1.711v-1.711h0.477v3h-0.383l-0.776-1.786v1.786h-0.493l0.001-3z"></path>
<path fill="#afb1b8" d="M30.585 14.485l-0.641-1.852h0.54l0.391 1.19 0.367-1.19h0.528l-0.633 1.852v1.144h-0.552v-1.144z"></path>
<path fill="#afb1b8" d="M16.952 16.94v0.157h-0.47v1.219h-0.197v-1.219h-0.472v-0.157h1.138z"></path>
<path fill="#afb1b8" d="M18.424 18.316h-0.152c-0.015 0.001-0.030-0.004-0.043-0.013-0.011-0.008-0.020-0.019-0.025-0.031l-0.136-0.327h-0.651l-0.136 0.327c-0.004 0.013-0.011 0.026-0.021 0.037-0.012 0.009-0.027 0.014-0.043 0.013h-0.152l0.575-1.376h0.2l0.582 1.37zM17.471 17.805h0.543l-0.23-0.56c-0.017-0.042-0.031-0.086-0.043-0.13-0.008 0.026-0.015 0.051-0.022 0.073l-0.021 0.058-0.228 0.559z"></path>
<path fill="#afb1b8" d="M19.416 18.181c0.036 0.002 0.072 0.002 0.108 0 0.031-0.003 0.062-0.008 0.092-0.017 0.028-0.007 0.056-0.015 0.083-0.025 0.025-0.010 0.051-0.022 0.077-0.034v-0.309h-0.23c-0.006 0.001-0.011-0.001-0.017-0.003s-0.010-0.005-0.014-0.009c-0.004-0.003-0.007-0.007-0.009-0.011s-0.003-0.009-0.003-0.014v-0.106h0.446v0.527c-0.037 0.025-0.075 0.046-0.115 0.066s-0.084 0.035-0.127 0.047c-0.047 0.013-0.095 0.023-0.144 0.028-0.056 0.006-0.112 0.009-0.168 0.009-0.099 0.001-0.198-0.017-0.29-0.051-0.086-0.033-0.165-0.082-0.23-0.144-0.064-0.063-0.115-0.137-0.149-0.218-0.036-0.091-0.054-0.188-0.053-0.285-0.001-0.098 0.017-0.196 0.052-0.287 0.033-0.082 0.084-0.156 0.149-0.218s0.144-0.11 0.23-0.143c0.099-0.035 0.203-0.053 0.308-0.051 0.054 0 0.107 0.004 0.16 0.012 0.047 0.007 0.093 0.019 0.137 0.035 0.040 0.014 0.079 0.033 0.115 0.055 0.035 0.022 0.069 0.045 0.1 0.072l-0.055 0.085c-0.004 0.008-0.011 0.014-0.019 0.019s-0.017 0.007-0.026 0.007c-0.013-0.001-0.025-0.004-0.036-0.011-0.017-0.009-0.036-0.020-0.056-0.033-0.024-0.014-0.050-0.027-0.077-0.037-0.034-0.013-0.070-0.023-0.106-0.030-0.048-0.008-0.097-0.012-0.146-0.012-0.076-0.001-0.151 0.012-0.222 0.038-0.064 0.024-0.122 0.061-0.169 0.109-0.047 0.050-0.084 0.108-0.107 0.171-0.052 0.149-0.052 0.31 0 0.459 0.025 0.065 0.065 0.124 0.115 0.173 0.047 0.047 0.104 0.084 0.168 0.109 0.073 0.024 0.151 0.033 0.228 0.027z"></path>
<path fill="#afb1b8" d="M21.25 18.159h0.628v0.157h-0.821v-1.376h0.197l-0.005 1.219z"></path>
<path fill="#afb1b8" d="M22.532 18.316h-0.197v-1.376h0.197v1.376z"></path>
<path fill="#afb1b8" d="M23.264 16.947c0.012 0.006 0.022 0.015 0.030 0.025l0.841 1.037c-0.001-0.017-0.001-0.033 0-0.049 0-0.015 0-0.030 0-0.045v-0.981h0.171v1.381h-0.099c-0.014 0.001-0.029-0.002-0.043-0.008-0.012-0.007-0.023-0.015-0.031-0.026l-0.84-1.036c0 0.017 0 0.031 0 0.047s0 0.029 0 0.042v0.981h-0.165v-1.376h0.102c0.011 0 0.022 0.002 0.032 0.007z"></path>
<path fill="#afb1b8" d="M25.755 16.94v0.151h-0.697v0.454h0.565v0.146h-0.565v0.47h0.697v0.151h-0.9v-1.372h0.9z"></path>
<path fill="#afb1b8" d="M5.135 8.443l8.738 2.349v8.23l-8.738-2.347v-8.231zM4.575 7.742v9.333l9.857 2.65v-9.332l-9.857-2.651z"></path>
<path fill="#afb1b8" d="M9.858 24.057l-9.858-2.652v-9.332l9.858 2.651v9.333z"></path>
<path fill="#afb1b8" d="M4.739 8.338l8.623 2.319-3.667 3.473-8.625-2.321 3.669-3.471zM4.575 7.742l-4.575 4.331 9.858 2.651 4.574-4.331-9.857-2.651z"></path>
<path fill="#afb1b8" d="M10.413 23.532l4.020-3.806-4.020-1.082v4.888z"></path>
</svg>
