<!-- Generated by IcoMoon.io -->
<svg version="1.1" xmlns="http://www.w3.org/2000/svg" width="32" height="32" viewBox="0 0 32 32">
<title>foster</title>
<path fill="#afb1b8" d="M4.923 12.559h-0.001c-0.898 0-1.626 0.709-1.626 1.585v0.001c0 0.875 0.728 1.585 1.626 1.585h0.001c0.898 0 1.626-0.709 1.626-1.585v-0.001c0-0.875-0.728-1.585-1.626-1.585z"></path>
<path fill="#afb1b8" d="M16.923 12.053c-0.003-1.215-0.499-2.38-1.381-3.239s-2.077-1.343-3.324-1.346v0c-1.247 0.002-2.443 0.486-3.325 1.346s-1.379 2.025-1.381 3.241v6.702c0 0 9.411-1.021 9.412-6.701v-0.001z"></path>
<path fill="#afb1b8" d="M0 20.954c0.002 0.846 0.348 1.656 0.962 2.254s1.445 0.935 2.313 0.938c0.868-0.003 1.699-0.339 2.313-0.937s0.959-1.408 0.962-2.253v-4.663c0 0-6.548 0.711-6.548 4.662zM3.274 21.79c-0.17 0-0.335-0.049-0.476-0.141s-0.251-0.222-0.316-0.375-0.082-0.321-0.049-0.483c0.033-0.162 0.115-0.311 0.235-0.428s0.273-0.196 0.439-0.229c0.166-0.032 0.339-0.015 0.495 0.047s0.291 0.17 0.385 0.308c0.094 0.138 0.145 0.299 0.145 0.464 0.001 0.11-0.021 0.219-0.065 0.321s-0.106 0.194-0.186 0.272c-0.079 0.078-0.174 0.14-0.278 0.182s-0.216 0.064-0.329 0.064v-0.003z"></path>
<path fill="#afb1b8" d="M9.958 21.271h-0.67v0.692h-0.349v-1.693h1.102v0.283h-0.754v0.437h0.67v0.282zM11.635 21.155c0 0.166-0.029 0.313-0.089 0.438s-0.143 0.222-0.253 0.291c-0.109 0.068-0.235 0.102-0.377 0.102-0.14 0-0.266-0.034-0.375-0.101s-0.195-0.164-0.256-0.289c-0.060-0.125-0.091-0.27-0.092-0.433v-0.084c0-0.166 0.030-0.313 0.090-0.439s0.146-0.225 0.254-0.292c0.11-0.068 0.236-0.102 0.377-0.102s0.266 0.034 0.375 0.102c0.11 0.067 0.195 0.165 0.254 0.292 0.060 0.126 0.091 0.273 0.091 0.438v0.076zM11.281 21.078c0-0.178-0.032-0.313-0.095-0.405s-0.154-0.138-0.272-0.138c-0.117 0-0.207 0.046-0.271 0.137s-0.096 0.224-0.097 0.4v0.083c0 0.173 0.032 0.307 0.095 0.402s0.155 0.143 0.275 0.143c0.117 0 0.207-0.046 0.27-0.137 0.063-0.092 0.094-0.226 0.095-0.402v-0.083zM12.766 21.519c0-0.066-0.023-0.116-0.070-0.151-0.046-0.036-0.13-0.073-0.251-0.111-0.121-0.039-0.217-0.078-0.287-0.116-0.192-0.104-0.289-0.244-0.289-0.42 0-0.092 0.026-0.173 0.077-0.244s0.126-0.129 0.222-0.169c0.097-0.041 0.205-0.060 0.325-0.060 0.121 0 0.229 0.022 0.323 0.066 0.094 0.043 0.168 0.105 0.22 0.185 0.053 0.080 0.079 0.171 0.079 0.272h-0.349c0-0.077-0.025-0.138-0.073-0.18s-0.117-0.065-0.206-0.065c-0.085 0-0.151 0.018-0.199 0.054s-0.071 0.083-0.071 0.142c0 0.055 0.028 0.101 0.083 0.138 0.056 0.037 0.138 0.072 0.245 0.105 0.198 0.060 0.343 0.134 0.434 0.222s0.136 0.198 0.136 0.33c0 0.147-0.055 0.262-0.166 0.346s-0.26 0.124-0.447 0.124c-0.13 0-0.249-0.023-0.356-0.071s-0.189-0.114-0.245-0.196c-0.056-0.083-0.084-0.179-0.084-0.289h0.35c0 0.187 0.111 0.28 0.335 0.28 0.083 0 0.148-0.017 0.194-0.050s0.070-0.082 0.070-0.142zM14.628 20.553h-0.518v1.411h-0.349v-1.411h-0.511v-0.283h1.379v0.283zM15.846 21.229h-0.67v0.453h0.786v0.28h-1.135v-1.693h1.133v0.283h-0.783v0.404h0.67v0.273zM16.794 21.343h-0.278v0.62h-0.349v-1.693h0.629c0.2 0 0.354 0.045 0.463 0.134s0.163 0.215 0.163 0.378c0 0.116-0.025 0.212-0.076 0.29-0.050 0.077-0.125 0.138-0.227 0.183l0.366 0.692v0.016h-0.374l-0.317-0.62zM16.516 21.061h0.282c0.087 0 0.155-0.022 0.204-0.066s0.072-0.107 0.072-0.185c0-0.080-0.023-0.142-0.069-0.188-0.045-0.046-0.114-0.069-0.208-0.069h-0.28v0.508zM18.63 21.367v0.596h-0.349v-1.693h0.66c0.127 0 0.239 0.023 0.335 0.070 0.097 0.046 0.171 0.113 0.223 0.199s0.078 0.182 0.078 0.292c0 0.166-0.057 0.297-0.171 0.393-0.113 0.095-0.27 0.143-0.471 0.143h-0.306zM18.63 21.084h0.311c0.092 0 0.163-0.022 0.211-0.065 0.049-0.043 0.073-0.106 0.073-0.186 0-0.083-0.025-0.15-0.073-0.201s-0.116-0.077-0.202-0.079h-0.32v0.531zM20.837 21.229h-0.67v0.453h0.786v0.28h-1.135v-1.693h1.133v0.283h-0.783v0.404h0.67v0.273zM22.455 20.553h-0.518v1.411h-0.349v-1.411h-0.511v-0.283h1.379v0.283zM23.674 21.229h-0.67v0.453h0.786v0.28h-1.135v-1.693h1.133v0.283h-0.784v0.404h0.67v0.273zM24.622 21.343h-0.278v0.62h-0.349v-1.693h0.629c0.2 0 0.354 0.045 0.463 0.134s0.163 0.215 0.163 0.378c0 0.116-0.025 0.212-0.076 0.29-0.050 0.077-0.125 0.138-0.227 0.183l0.366 0.692v0.016h-0.374l-0.317-0.62zM24.344 21.061h0.282c0.087 0 0.155-0.022 0.204-0.066s0.072-0.107 0.072-0.185c0-0.080-0.023-0.142-0.069-0.188-0.045-0.046-0.114-0.069-0.208-0.069h-0.28v0.508zM26.394 21.519c0-0.066-0.023-0.116-0.070-0.151-0.046-0.036-0.13-0.073-0.251-0.111-0.121-0.039-0.217-0.078-0.287-0.116-0.192-0.104-0.289-0.244-0.289-0.42 0-0.092 0.026-0.173 0.077-0.244s0.126-0.129 0.222-0.169c0.097-0.041 0.205-0.060 0.325-0.060 0.121 0 0.229 0.022 0.323 0.066 0.094 0.043 0.168 0.105 0.22 0.185 0.053 0.080 0.079 0.171 0.079 0.272h-0.349c0-0.077-0.025-0.138-0.073-0.18s-0.117-0.065-0.206-0.065c-0.085 0-0.151 0.018-0.199 0.054s-0.071 0.083-0.071 0.142c0 0.055 0.028 0.101 0.083 0.138 0.056 0.037 0.138 0.072 0.245 0.105 0.198 0.060 0.343 0.134 0.434 0.222s0.136 0.198 0.136 0.33c0 0.147-0.055 0.262-0.166 0.346s-0.26 0.124-0.447 0.124c-0.13 0-0.249-0.023-0.356-0.071s-0.189-0.114-0.245-0.196c-0.056-0.083-0.084-0.179-0.084-0.289h0.35c0 0.187 0.111 0.28 0.335 0.28 0.083 0 0.148-0.017 0.194-0.050s0.070-0.082 0.070-0.142z"></path>
</svg>
