<!-- Generated by IcoMoon.io -->
<svg version="1.1" xmlns="http://www.w3.org/2000/svg" width="32" height="32" viewBox="0 0 32 32">
<title>twitter</title>
<path fill="#afb1b8" d="M31.605 6.201c-1.175 0.516-2.428 0.857-3.733 1.023 1.343-0.802 2.369-2.062 2.851-3.581-1.252 0.747-2.635 1.274-4.108 1.568-1.189-1.266-2.884-2.051-4.732-2.051-3.587 0-6.475 2.912-6.475 6.481 0 0.514 0.044 1.007 0.15 1.477-5.387-0.263-10.153-2.844-13.355-6.777-0.559 0.97-0.887 2.080-0.887 3.275 0 2.244 1.156 4.233 2.878 5.385-1.041-0.020-2.062-0.322-2.927-0.798 0 0.020 0 0.045 0 0.071 0 3.148 2.246 5.764 5.191 6.366-0.527 0.144-1.102 0.213-1.699 0.213-0.415 0-0.834-0.023-1.227-0.11 0.839 2.566 3.221 4.452 6.054 4.514-2.204 1.724-5.004 2.764-8.034 2.764-0.532 0-1.041-0.023-1.55-0.089 2.87 1.851 6.272 2.908 9.94 2.908 11.923 0 18.442-9.876 18.442-18.437 0-0.286-0.010-0.563-0.024-0.837 1.286-0.913 2.366-2.052 3.247-3.364z"></path>
</svg>
